<svg width="24" height="24" viewBox="0 0 24 24" fill="#44a8b3" xmlns="http://www.w3.org/2000/svg">
  <path d="M9 9H7C7 7.9 7.9 7 9 7V9Z"/>
  <path d="M15 9L15 7C16.1 7 17 7.9 17 9L15 9Z"/>
  <path d="M9 15L9 17C7.9 17 7 16.1 7 15L9 15Z"/>
  <path d="M15 15L17 15C17 16.1 16.1 17 15 17L15 15Z"/>
  <path fill-rule="evenodd" clip-rule="evenodd" d="M21 3H3V21H21V3ZM19 5H5V19H19V5Z"/>
  <rect x="11" y="7" width="2" height="2"/>
  <rect x="7" y="11" width="2" height="2"/>
  <rect x="11" y="15" width="2" height="2"/>
  <rect x="15" y="11" width="2" height="2"/>
</svg>
