<svg width="48" height="48" viewBox="0 0 48 48" xmlns="http://www.w3.org/2000/svg">
  <path fill-rule="evenodd" clip-rule="evenodd" d="M24 10C17.6 10 13.6 13.2 12 19.6C14.4 16.4 17.2 15.2 20.4 16C22.2258 16.4564 23.5308 17.781 24.9752 19.2472C27.3283 21.6356 30.0516 24.4 36 24.4C42.4 24.4 46.4 21.2 48 14.8C45.6 18 42.8 19.2 39.6 18.4C37.7742 17.9436 36.4692 16.619 35.0248 15.1528C32.6717 12.7644 29.9484 10 24 10ZM12 24.4C5.6 24.4 1.6 27.6 0 34C2.4 30.8 5.2 29.6 8.4 30.4C10.2258 30.8564 11.5308 32.181 12.9752 33.6472C15.3283 36.0356 18.0516 38.8 24 38.8C30.4 38.8 34.4 35.6 36 29.2C33.6 32.4 30.8 33.6 27.6 32.8C25.7742 32.3436 24.4692 31.019 23.0248 29.5528C20.6717 27.1644 17.9484 24.4 12 24.4Z"/>
</svg>
